<svg width="19" height="25" viewBox="0 0 19 25" fill="none" xmlns="http://www.w3.org/2000/svg">
<g id="Iconly/Bulk/Location">
<g id="Location">
<path id="Path_34175" fill-rule="evenodd" clip-rule="evenodd" d="M3.53162 3.64701C5.71648 2.37751 8.40203 2.3997 10.5664 3.70513C12.7095 5.03715 14.012 7.41441 13.9998 9.97168C13.95 12.5122 12.5533 14.9002 10.8075 16.7463C9.79983 17.8166 8.67261 18.7631 7.44884 19.5663C7.32281 19.6392 7.18475 19.6879 7.04148 19.7102C6.9036 19.7044 6.76932 19.6636 6.65075 19.5917C4.78243 18.3848 3.14334 16.8443 1.81233 15.0442C0.698589 13.5416 0.0658357 11.7262 1.16173e-06 9.84465C-0.00144468 7.28248 1.34677 4.9165 3.53162 3.64701ZM4.79416 10.905C5.16168 11.8111 6.02918 12.4021 6.9916 12.4021C7.6221 12.4066 8.22819 12.1541 8.67481 11.7007C9.12143 11.2474 9.37148 10.6309 9.36925 9.98862C9.37261 9.00827 8.79546 8.12255 7.90726 7.74501C7.01907 7.36747 5.99504 7.57259 5.31332 8.26458C4.63159 8.95658 4.42664 9.99896 4.79416 10.905Z" fill="#B8A8E5"/>
<ellipse id="Ellipse_743" cx="7" cy="21.7102" rx="5" ry="1" fill="#232141"/>
</g>
</g>
</svg>
