<svg width="22" height="18" viewBox="0 0 22 18" fill="none" xmlns="http://www.w3.org/2000/svg">
<path d="M12.8963 6.71102V4.52285C12.4668 4.52285 12.1106 4.17682 12.1106 3.75954V1.15409C12.1106 0.807039 11.8277 0.533264 11.4715 0.533264H4.27368C2.01063 0.533264 0.166656 2.32349 0.166656 4.52285V7.15781C0.166656 7.36238 0.250473 7.55575 0.397153 7.69824C0.543833 7.83971 0.742898 7.92113 0.95244 7.92113C1.7487 7.92113 2.35637 8.47071 2.35637 9.19332C2.35637 9.94747 1.73822 10.5479 0.962917 10.5571C0.533355 10.5571 0.166656 10.8523 0.166656 11.2797V13.8862C0.166656 16.0845 2.01063 17.8656 4.26321 17.8656H11.4715C11.8277 17.8656 12.1106 17.5898 12.1106 17.2448V15.0454C12.1106 14.619 12.4668 14.2821 12.8963 14.2821V12.3087C12.4668 12.3087 12.1106 11.9616 12.1106 11.5453V7.47433C12.1106 7.05705 12.4668 6.71102 12.8963 6.71102Z" fill="#B8A8E5"/>
<path d="M19.6436 9.19384C19.6436 9.94698 20.2722 10.5475 21.0371 10.5576C21.4666 10.5576 21.8333 10.8528 21.8333 11.2701V13.8857C21.8333 16.085 19.9998 17.8661 17.7368 17.8661H14.3212C13.9755 17.8661 13.6821 17.5903 13.6821 17.2443V15.0459C13.6821 14.6185 13.3364 14.2826 12.8964 14.2826V12.3092C13.3364 12.3092 13.6821 11.9621 13.6821 11.5459V7.47486C13.6821 7.05657 13.3364 6.71155 12.8964 6.71155V4.52236C13.3364 4.52236 13.6821 4.17633 13.6821 3.75905V1.15462C13.6821 0.807569 13.9755 0.532776 14.3212 0.532776H17.7368C19.9998 0.532776 21.8333 2.31384 21.8333 4.51219V7.07692C21.8333 7.28047 21.7495 7.47486 21.6028 7.61633C21.4562 7.75881 21.2571 7.84023 21.0476 7.84023C20.2722 7.84023 19.6436 8.4519 19.6436 9.19384Z" fill="#232141"/>
</svg>
