<svg width="26" height="26" viewBox="0 0 26 26" fill="none" xmlns="http://www.w3.org/2000/svg">
<path d="M15.0038 4.60441V7.22608M15.0038 19.24V21.4327M15.0038 15.5182V10.2955M20.2606 21.6666C22.2345 21.6666 23.8333 20.0877 23.8333 18.1383V15.3298C22.5272 15.3298 21.4753 14.2909 21.4753 13.001C21.4753 11.7111 22.5272 10.6712 23.8333 10.6712L23.8322 7.86151C23.8322 5.91215 22.2323 4.33325 20.2595 4.33325H5.74048C3.7677 4.33325 2.16779 5.91215 2.16779 7.86151L2.16666 10.7627C3.4728 10.7627 4.52473 11.7111 4.52473 13.001C4.52473 14.2909 3.4728 15.3298 2.16666 15.3298V18.1383C2.16666 20.0877 3.76544 21.6666 5.73935 21.6666H20.2606Z" stroke="#232141" stroke-width="1.6" stroke-linecap="round" stroke-linejoin="round"/>
</svg>
