<svg width="27" height="27" viewBox="0 0 27 27" fill="none" xmlns="http://www.w3.org/2000/svg">
<path d="M13.0128 23.8567C10.5395 22.329 8.24037 20.5277 6.1574 18.4857C4.68691 17.0277 3.56388 15.2475 2.87412 13.281C1.64169 9.44596 3.07632 5.06307 7.08173 3.76189C9.19587 3.09795 11.4952 3.50553 13.2632 4.85762C15.0318 3.50704 17.3304 3.0996 19.4446 3.76189C23.45 5.06307 24.8943 9.44596 23.6618 13.281C22.9777 15.2456 21.8613 17.0257 20.3978 18.4857C18.3129 20.5255 16.014 22.3266 13.5424 23.8567L13.2728 24.0328L13.0128 23.8567Z" fill="#DD9ED0"/>
<path d="M13.2673 24.0328L13.0128 23.8567C10.5365 22.3292 8.23412 20.5279 6.14778 18.4857C4.67032 17.0297 3.5406 15.2493 2.84524 13.281C1.62244 9.44596 3.05707 5.06306 7.06248 3.76189C9.17662 3.09795 11.5062 3.50584 13.2673 4.86925V24.0328Z" fill="#232141"/>
</svg>
