<svg width="27" height="27" viewBox="0 0 27 27" fill="none" xmlns="http://www.w3.org/2000/svg">
<path fill-rule="evenodd" clip-rule="evenodd" d="M10.4655 4.25895C10.4655 3.81171 10.0961 3.44946 9.64107 3.44946H9.63998L7.87523 3.45053C5.50165 3.45265 3.57007 5.34889 3.57007 7.67749V9.69164C3.57007 10.1378 3.93948 10.5011 4.39448 10.5011C4.84948 10.5011 5.21998 10.1378 5.21998 9.69164V7.67749C5.21998 6.24017 6.41165 5.07056 7.87632 5.06843L9.64107 5.06737C10.0972 5.06737 10.4655 4.70512 10.4655 4.25895ZM19.1375 3.44978H17.4117C16.9567 3.44978 16.5873 3.81203 16.5873 4.25927C16.5873 4.70544 16.9567 5.06663 17.4117 5.06663H19.1375C20.6075 5.06663 21.8035 6.23943 21.8035 7.68099V9.69196C21.8035 10.1381 22.173 10.5014 22.628 10.5014C23.084 10.5014 23.4524 10.1381 23.4524 9.69196V7.68099C23.4524 5.34708 21.5175 3.44978 19.1375 3.44978ZM10.5194 7.50401H16.5038C17.1592 7.50401 17.7886 7.76215 18.2469 8.22214C18.7084 8.68637 18.964 9.30995 18.9629 9.95902V11.3082C18.9575 11.4665 18.8286 11.595 18.6672 11.5992H8.35385C8.19352 11.5939 8.0646 11.4654 8.06135 11.3082V9.95902C8.04943 8.61519 9.1501 7.51782 10.5194 7.50401Z" fill="#AACA90"/>
<path d="M24.6033 13.2441H2.41989C1.96489 13.2441 1.59439 13.6064 1.59439 14.0536C1.59439 14.4998 1.96489 14.861 2.41989 14.861H3.56931V18.7214C3.56931 21.05 5.50197 22.9463 7.87556 22.9484L9.64031 22.9495C10.0964 22.9495 10.4647 22.5872 10.4658 22.14C10.4658 21.6938 10.0964 21.3316 9.64139 21.3316L7.87772 21.3305C6.41197 21.3284 5.21922 20.1588 5.21922 18.7214V14.861H8.06081V15.935C8.04997 17.2788 9.14956 18.3773 10.5189 18.39H16.5032C17.8736 18.3773 18.9732 17.2788 18.9624 15.935V14.861H21.804V18.7172C21.804 20.1598 20.608 21.3316 19.1379 21.3316H17.4121C16.9561 21.3316 16.5866 21.6938 16.5866 22.14C16.5866 22.5872 16.9561 22.9495 17.4121 22.9495H19.1379C21.5169 22.9495 23.4528 21.0522 23.4528 18.7172V14.861H24.6033C25.0583 14.861 25.4277 14.4998 25.4277 14.0536C25.4277 13.6064 25.0583 13.2441 24.6033 13.2441Z" fill="#130F26"/>
</svg>
